# Blender 3.5.1
# www.blender.org
mtllib collision_box_right_edge_short.mtl
o right_edge
v 0.677000 -0.305020 0.314000
v -0.767000 -0.305020 0.314000
v -0.767250 -0.395000 0.314000
v -0.767000 -0.119980 0.314000
v 0.677000 -0.119980 0.314000
v -0.767000 -0.305020 0.260000
v -0.767250 -0.305000 0.314000
v -0.767000 -0.119980 0.260000
v 0.677000 -0.305020 0.260000
v -0.677000 -0.305020 0.314000
v -0.677000 -0.119980 0.314000
v -0.767250 -0.395000 0.260000
v 0.677000 -0.119980 0.260000
v -0.677000 -0.305020 0.260000
v -0.767250 -0.305000 0.260000
v -0.677000 -0.119980 0.260000
v 0.767000 -0.305020 0.314000
v 0.767250 -0.395000 0.314000
v 0.767000 -0.119980 0.314000
v 0.767250 -0.305000 0.314000
v 0.767000 -0.305020 0.260000
v 0.767250 -0.395000 0.260000
v 0.767000 -0.119980 0.260000
v 0.767250 -0.305000 0.260000
v 0.677000 -0.305000 0.314000
v 0.677000 -0.305000 0.260000
v 0.767000 -0.305000 0.260000
v 0.767000 -0.305000 0.314000
v -0.767000 -0.305000 0.260000
v -0.677000 -0.305000 0.260000
v -0.766990 -0.305000 0.260000
v -0.767000 -0.305000 0.314000
v -0.677000 -0.305000 0.314000
v -0.677010 -0.305000 0.314000
v -0.767000 -0.305000 0.260000
v -0.677000 -0.305001 0.314000
v -0.677009 -0.305001 0.314000
v -0.766990 -0.305000 0.260000
vn -1.0000 -0.0000 -0.0000
vn -0.0000 -0.0000 -1.0000
vn 1.0000 -0.0000 -0.0000
vn -0.0000 -0.0000 1.0000
vn -0.0000 1.0000 -0.0000
vn -0.0000 0.0006 1.0000
vn -0.0000 -1.0000 -0.0000
vt 0.375000 1.000000
vt 0.624944 0.764703
vt 0.624944 0.999959
vt 0.375000 0.000000
vt 0.375000 1.000000
vt 0.125000 0.750000
vt 0.625000 0.000000
vt 0.625000 1.000000
vt 0.875000 0.750000
vt 0.625000 0.000000
vt 0.625000 1.000000
vt 0.875000 0.750000
vt 0.624944 0.250041
vt 0.625000 0.000000
vt 0.625000 1.000000
vt 0.875000 0.750000
vt 0.625000 0.250000
vt 0.875000 0.500000
vt 0.375000 0.250000
vt 0.624944 0.485296
vt 0.624944 0.985297
vt 0.625000 0.750000
vt 0.375000 0.250000
vt 0.125000 0.500000
vt 0.625000 0.250000
vt 0.875000 0.500000
vt 0.624944 0.264703
vt 0.625000 0.250000
vt 0.875000 0.500000
vt 0.625000 0.500000
vt 0.375000 0.750000
vt 0.624944 0.750041
vt 0.375000 0.750000
vt 0.625000 0.750000
vt 0.625000 0.750000
vt 0.375000 0.500000
vt 0.624944 0.499959
vt 0.375000 0.500000
vt 0.625000 0.500000
vt 0.625000 0.500000
vt 0.375027 0.000000
vt 0.375027 1.000000
vt 0.625000 0.764704
vt 0.639703 0.750000
vt 0.375027 0.250000
vt 0.625000 0.485297
vt 0.639704 0.500000
vt 0.375027 0.500000
vt 0.625041 0.500000
vt 0.375027 0.750000
vt 0.625041 0.750000
vt 0.625000 0.250041
vt 0.874959 0.500000
vt 0.375027 0.250000
vt 0.625000 0.264703
vt 0.860297 0.500000
vt 0.375027 0.500000
vt 0.625000 0.250042
vt 0.375027 0.250027
vt 0.625000 0.999959
vt 0.874959 0.750000
vt 0.375027 0.000000
vt 0.375027 1.000000
vt 0.625000 0.985297
vt 0.860297 0.750000
vt 0.375027 0.750000
vt 0.625000 0.985298
vt 0.375027 0.750027
vt 0.625000 0.250041
vt 0.625000 0.985297
vt 0.625000 0.985298
vt 0.625000 0.250042
s 0
f 25/41/1 5/10/1 13/25/1 26/45/1
f 13/25/2 23/39/2 27/48/2 26/45/2
f 9/19/2 26/45/2 27/48/2 21/36/2
f 27/48/3 23/39/3 19/34/3 28/50/3
f 28/50/4 19/34/4 5/11/4 25/42/4
f 25/42/4 1/1/4 17/31/4 28/50/4
f 23/39/5 13/26/5 5/12/5 19/34/5
f 3/4/1 7/14/1 15/28/1 12/23/1
f 30/55/2 26/46/2 9/20/2 21/37/2 27/49/2 24/40/2 22/38/2 12/23/2 15/28/2 29/52/2 35/69/2 6/13/2 14/27/2
f 29/52/5 31/58/5 38/72/5 35/69/5
f 14/27/2 6/13/2 35/69/2 38/72/2 31/58/2 30/55/2
f 22/38/3 24/40/3 20/35/3 18/33/3
f 32/60/4 7/15/4 3/5/4 18/33/4 20/35/4 28/51/4 17/32/4 1/2/4 25/43/4 33/64/4 36/70/4 10/21/4 2/3/4
f 34/67/4 32/60/4 2/3/4 10/21/4 36/70/4 37/71/4
f 36/70/6 33/64/6 34/67/6 37/71/6
f 12/24/7 22/38/7 18/33/7 3/6/7
f 29/53/5 15/29/5 7/16/5 32/61/5
f 25/44/5 26/47/5 30/56/5 33/65/5
f 20/35/5 24/40/5 27/49/5 28/51/5
f 32/62/1 4/7/1 8/17/1 29/54/1
f 31/59/2 29/54/2 8/17/2 16/30/2 30/57/2
f 30/57/3 16/30/3 11/22/3 33/66/3
f 33/66/4 11/22/4 4/8/4 32/63/4 34/68/4
f 16/30/5 8/18/5 4/9/5 11/22/5
