# Blender 3.5.1
# www.blender.org
mtllib collision_box_left_edge_only.mtl
o left_edge
v -0.767250 0.305000 0.574000
v -0.767000 0.119980 0.574000
v -0.767000 0.305020 0.574000
v 0.677000 0.120003 0.574000
v -0.767250 0.395000 0.574000
v -0.767000 0.119980 0.520000
v -0.767000 0.305020 0.520000
v 0.677000 0.304998 0.574000
v -0.767250 0.305000 0.520000
v -0.677000 0.119980 0.574000
v -0.677000 0.305020 0.574000
v 0.677000 0.120003 0.520000
v -0.767250 0.395000 0.520000
v -0.677000 0.119980 0.520000
v -0.677000 0.305020 0.520000
v 0.677000 0.304998 0.520000
v 0.767250 0.305000 0.574000
v 0.767000 0.120003 0.574000
v 0.767250 0.395000 0.574000
v 0.767000 0.304998 0.574000
v 0.767250 0.305000 0.520000
v 0.767000 0.120003 0.520000
v 0.767250 0.395000 0.520000
v 0.767000 0.304998 0.520000
v -0.767000 0.305000 0.520000
v -0.677000 0.305000 0.520000
v -0.677000 0.305000 0.574000
v -0.767000 0.305000 0.574000
vn -1.0000 -0.0000 -0.0000
vn -0.0000 -0.0000 -1.0000
vn 1.0000 -0.0000 -0.0000
vn -0.0000 -0.0000 1.0000
vn -0.0000 -1.0000 -0.0000
vn -0.0000 1.0000 -0.0000
vt 0.375000 0.000000
vt 0.375000 1.000000
vt 0.125000 0.750000
vt 0.375000 0.000000
vt 0.375000 1.000000
vt 0.125000 0.750000
vt 0.375056 0.999959
vt 0.375000 0.000000
vt 0.375000 1.000000
vt 0.125000 0.750000
vt 0.625000 0.000000
vt 0.625000 1.000000
vt 0.875000 0.750000
vt 0.375000 0.250000
vt 0.125000 0.500000
vt 0.375056 0.250041
vt 0.625000 0.000000
vt 0.625000 1.000000
vt 0.875000 0.750000
vt 0.375000 0.250000
vt 0.125000 0.500000
vt 0.375000 0.750000
vt 0.375056 0.985297
vt 0.375000 0.250000
vt 0.125000 0.500000
vt 0.625000 0.250000
vt 0.875000 0.500000
vt 0.375000 0.500000
vt 0.375056 0.264703
vt 0.625000 0.250000
vt 0.875000 0.500000
vt 0.375000 0.750000
vt 0.375000 0.750000
vt 0.625000 0.750000
vt 0.625000 0.750000
vt 0.375000 0.500000
vt 0.375000 0.500000
vt 0.625000 0.500000
vt 0.625000 0.500000
vt 0.375000 0.250041
vt 0.125041 0.500000
vt 0.624973 0.250000
vt 0.375000 0.264703
vt 0.139703 0.500000
vt 0.624973 0.500000
vt 0.375000 0.985297
vt 0.139703 0.750000
vt 0.624973 0.750000
vt 0.375000 0.999959
vt 0.125041 0.750000
vt 0.624973 0.000000
vt 0.624973 1.000000
s 0
f 1/1/1 5/11/1 13/26/1 9/20/1
f 25/40/2 9/20/2 13/26/2 23/38/2 21/36/2 26/43/2 15/29/2 7/16/2
f 15/29/2 26/43/2 25/40/2 7/16/2
f 21/36/3 23/38/3 19/34/3 17/32/3
f 17/32/4 19/34/4 5/12/4 1/2/4 28/49/4 3/7/4 11/23/4 27/46/4
f 27/46/4 11/23/4 3/7/4 28/49/4
f 21/36/5 17/32/5 27/47/5 26/44/5
f 1/3/5 9/21/5 25/41/5 28/50/5
f 23/38/6 13/27/6 5/13/6 19/34/6
f 4/8/1 8/17/1 16/30/1 12/24/1
f 12/24/2 16/30/2 24/39/2 22/37/2
f 22/37/3 24/39/3 20/35/3 18/33/3
f 18/33/4 20/35/4 8/18/4 4/9/4
f 12/25/5 22/37/5 18/33/5 4/10/5
f 24/39/6 16/31/6 8/19/6 20/35/6
f 25/42/1 6/14/1 2/4/1 28/51/1
f 26/45/2 14/28/2 6/14/2 25/42/2
f 27/48/3 10/22/3 14/28/3 26/45/3
f 28/52/4 2/5/4 10/22/4 27/48/4
f 6/15/5 14/28/5 10/22/5 2/6/5
